<svg width="53" height="42" viewBox="0 0 53 42" fill="none" xmlns="http://www.w3.org/2000/svg">
<path d="M13.1523 5.20688C14.0442 5.20688 14.7671 4.28057 14.7671 3.13792C14.7671 1.99527 14.0442 1.06897 13.1523 1.06897C12.2605 1.06897 11.5376 1.99527 11.5376 3.13792C11.5376 4.28057 12.2605 5.20688 13.1523 5.20688Z" stroke="url(#paint0_linear_578_192)" stroke-width="2" stroke-miterlimit="10"/>
<path d="M17.9967 20.5172L12.4526 23.2068C11.9144 23.4827 10.9993 23.8275 10.4072 24.0344L2.33323 26.7931C2.08989 26.9111 1.82053 26.9054 1.58035 26.7772C1.34017 26.649 1.14736 26.4079 1.04143 26.1034C0.87994 25.5517 1.20292 24.862 1.79501 24.5172L7.87734 21.3448C8.53291 20.9765 9.16312 20.5382 9.76129 20.0344L13.3676 16.862C13.8521 16.4482 14.6056 15.69 14.9825 15.2758C15.1781 14.9869 15.3149 14.6406 15.3807 14.2675C15.4464 13.8945 15.4391 13.5064 15.3593 13.1379L15.1978 12.5172C15.0051 11.8569 14.6914 11.2656 14.2831 10.7931C14.0952 10.674 13.9152 10.5357 13.7448 10.3793" stroke="url(#paint1_linear_578_192)" stroke-width="2" stroke-linecap="round" stroke-linejoin="round"/>
<path d="M15.8436 21.6897L17.0278 29.069C17.1355 29.8276 17.297 31.069 17.3508 31.8276L17.7814 39.6207C17.8352 40.3793 18.212 41 18.6427 41C18.8947 40.9493 19.1227 40.7796 19.2821 40.5244C19.4414 40.2692 19.5205 39.9468 19.5039 39.6207L20.0421 30.6552C20.0959 29.8966 20.0959 28.6552 20.0959 27.8966V20.3104C20.0959 19.5518 20.0421 18.3104 20.0421 17.5518L19.6653 10.6552C19.5661 9.79464 19.2871 8.98445 18.8579 8.31041L17.4584 6.44836" stroke="url(#paint2_linear_578_192)" stroke-width="2" stroke-linecap="round" stroke-linejoin="round"/>
<path d="M25.3709 1L22.1411 3.68968C21.5418 4.17127 20.9115 4.58657 20.2572 4.93107L18.2656 5.89653C17.7274 6.17238 16.8123 6.5862 16.2202 6.79311L14.7669 7.34482C14.0829 7.62265 13.4312 8.01699 12.8291 8.51726L11.322 9.89654C10.7227 10.3782 10.0925 10.7935 9.43809 11.1379L4.54016 13.4137" stroke="url(#paint3_linear_578_192)" stroke-width="2" stroke-linecap="round" stroke-linejoin="round"/>
<path d="M10.8951 2.88777C10.8951 2.88777 10.5237 2.87019 10.4027 3.16818C10.2601 3.51827 10.3968 4.46629 10.2615 4.98139C10.1338 5.49405 9.877 5.93799 9.53137 6.24376" stroke="url(#paint4_linear_578_192)" stroke-width="2" stroke-linecap="round" stroke-linejoin="round"/>
<path d="M38.9545 4.87683C39.79 4.87683 40.4674 4.00897 40.4674 2.93842C40.4674 1.86786 39.79 1 38.9545 1C38.1189 1 37.4416 1.86786 37.4416 2.93842C37.4416 4.00897 38.1189 4.87683 38.9545 4.87683Z" stroke="url(#paint5_linear_578_192)" stroke-width="2" stroke-miterlimit="10"/>
<path d="M28.3169 5.4624L30.6852 8.43503C31.0817 8.93223 31.8509 9.22532 32.3946 9.08588L35.4598 8.30031C36.0035 8.16087 36.9013 8.0025 37.4544 7.9479L41.999 7.49987C42.552 7.44527 43.4518 7.50181 43.9979 7.62548L51.5777 9.33924" stroke="url(#paint6_linear_578_192)" stroke-width="2" stroke-miterlimit="10" stroke-linecap="round" stroke-linejoin="round"/>
<path d="M36.4487 10.6315C36.4487 10.6315 36.6758 10.9224 36.953 11.2776C37.2303 11.6329 37.546 12.4939 37.6553 13.1908L38.2679 17.1181C38.3773 17.8147 38.2872 18.9196 38.069 19.5727L35.8371 26.2436C35.6189 26.8967 35.584 27.9826 35.7592 28.6571L37.1382 33.9587C37.3135 34.6333 37.7976 35.1848 38.2138 35.1848C38.6299 35.1848 38.889 34.6125 38.79 33.9133L38.1419 29.3487C38.0429 28.6495 38.1823 27.5687 38.4511 26.9478L39.9931 23.3914C40.2625 22.7706 40.7097 22.262 40.9874 22.262C41.2647 22.262 41.4917 22.8438 41.4917 23.5543V29.3695C41.4917 30.08 41.4745 31.2429 41.4538 31.9534L41.2273 39.7084C41.2066 40.4189 41.5636 41 42.0216 41C42.4791 41 42.9145 40.4239 42.9889 39.7191L43.8778 31.2966C43.9522 30.5918 44.0458 29.4357 44.0851 28.7265L44.4456 22.2588C44.485 21.5496 44.4388 20.3968 44.3422 19.697L43.0046 9.98535" stroke="url(#paint7_linear_578_192)" stroke-width="2" stroke-miterlimit="10" stroke-linecap="round" stroke-linejoin="round"/>
<defs>
<linearGradient id="paint0_linear_578_192" x1="11.5376" y1="3.13792" x2="14.7671" y2="3.13792" gradientUnits="userSpaceOnUse">
<stop stop-color="#32D0C6"/>
<stop offset="0.708333" stop-color="#ED21C4"/>
<stop offset="1" stop-color="#EC2048"/>
</linearGradient>
<linearGradient id="paint1_linear_578_192" x1="1" y1="18.6285" x2="17.9967" y2="18.6285" gradientUnits="userSpaceOnUse">
<stop stop-color="#32D0C6"/>
<stop offset="0.708333" stop-color="#ED21C4"/>
<stop offset="1" stop-color="#EC2048"/>
</linearGradient>
<linearGradient id="paint2_linear_578_192" x1="15.8436" y1="23.7242" x2="20.0959" y2="23.7242" gradientUnits="userSpaceOnUse">
<stop stop-color="#32D0C6"/>
<stop offset="0.708333" stop-color="#ED21C4"/>
<stop offset="1" stop-color="#EC2048"/>
</linearGradient>
<linearGradient id="paint3_linear_578_192" x1="4.54016" y1="7.20686" x2="25.3709" y2="7.20686" gradientUnits="userSpaceOnUse">
<stop stop-color="#32D0C6"/>
<stop offset="0.708333" stop-color="#ED21C4"/>
<stop offset="1" stop-color="#EC2048"/>
</linearGradient>
<linearGradient id="paint4_linear_578_192" x1="9.53137" y1="4.56567" x2="10.8951" y2="4.56567" gradientUnits="userSpaceOnUse">
<stop stop-color="#32D0C6"/>
<stop offset="0.708333" stop-color="#ED21C4"/>
<stop offset="1" stop-color="#EC2048"/>
</linearGradient>
<linearGradient id="paint5_linear_578_192" x1="37.4416" y1="2.93842" x2="40.4674" y2="2.93842" gradientUnits="userSpaceOnUse">
<stop stop-color="#32D0C6"/>
<stop offset="0.708333" stop-color="#ED21C4"/>
<stop offset="1" stop-color="#EC2048"/>
</linearGradient>
<linearGradient id="paint6_linear_578_192" x1="28.3169" y1="7.40082" x2="51.5777" y2="7.40082" gradientUnits="userSpaceOnUse">
<stop stop-color="#32D0C6"/>
<stop offset="0.708333" stop-color="#ED21C4"/>
<stop offset="1" stop-color="#EC2048"/>
</linearGradient>
<linearGradient id="paint7_linear_578_192" x1="35.6476" y1="25.4927" x2="44.4597" y2="25.4927" gradientUnits="userSpaceOnUse">
<stop stop-color="#32D0C6"/>
<stop offset="0.708333" stop-color="#ED21C4"/>
<stop offset="1" stop-color="#EC2048"/>
</linearGradient>
</defs>
</svg>
