<svg width="53" height="40" viewBox="0 0 53 40" fill="none" xmlns="http://www.w3.org/2000/svg">
<path d="M26.0705 0C-9.91303 0 -3.00007 40 13.1876 40C16.4315 40 19.486 37.8448 21.4331 34.1813L23.525 30.2448C24.7981 27.85 27.3436 27.85 28.6168 30.2448L30.7086 34.1813C32.655 37.8448 35.7094 40 38.9533 40C54.389 40 62.5816 0 26.0705 0ZM14.9592 25.4542C11.621 25.4542 9.45026 22.7812 8.44864 21.1781C8.02344 20.4979 8.02344 19.5021 8.44864 18.8208C9.45026 17.2167 11.6202 14.5448 14.9592 14.5448C18.2982 14.5448 20.4681 17.2177 21.4697 18.8208C21.8949 19.501 21.8949 20.4969 21.4697 21.1781C20.4681 22.7823 18.2973 25.4542 14.9592 25.4542ZM37.0728 25.4542C33.7346 25.4542 31.5639 22.7812 30.5623 21.1781C30.1371 20.4979 30.1371 19.5021 30.5623 18.8208C31.5639 17.2167 33.7338 14.5448 37.0728 14.5448C40.4118 14.5448 42.5817 17.2177 43.5834 18.8208C44.0086 19.501 44.0086 20.4969 43.5834 21.1781C42.5817 22.7823 40.411 25.4542 37.0728 25.4542Z" fill="url(#paint0_linear_578_207)"/>
<defs>
<linearGradient id="paint0_linear_578_207" x1="0" y1="20" x2="52.0321" y2="20" gradientUnits="userSpaceOnUse">
<stop stop-color="#32D0C6"/>
<stop offset="0.708333" stop-color="#ED21C4"/>
<stop offset="1" stop-color="#EC2048"/>
</linearGradient>
</defs>
</svg>
