<svg width="28" height="28" viewBox="0 0 28 28" fill="none" xmlns="http://www.w3.org/2000/svg">
<path d="M28 14C28 6.26613 21.7339 0 14 0C6.26613 0 0 6.26613 0 14C0 21.7339 6.26613 28 14 28C21.7339 28 28 21.7339 28 14ZM2.70968 14C2.70968 7.7621 7.7621 2.70968 14 2.70968C20.2379 2.70968 25.2903 7.7621 25.2903 14C25.2903 20.2379 20.2379 25.2903 14 25.2903C7.7621 25.2903 2.70968 20.2379 2.70968 14ZM6.77419 15.129V12.871C6.77419 12.4984 7.07903 12.1935 7.45161 12.1935H14V8.41129C14 7.80726 14.7282 7.50806 15.1573 7.93145L20.746 13.5202C21.0113 13.7855 21.0113 14.2145 20.746 14.4798L15.1573 20.0685C14.7282 20.4976 14 20.1927 14 19.5887V15.8065H7.45161C7.07903 15.8065 6.77419 15.5016 6.77419 15.129Z" fill="#E9EAEA"/>
</svg>
